<?xml version="1.0" encoding="UTF-8" standalone="no"?>
<svg
   xmlns:dc="http://purl.org/dc/elements/1.1/"
   xmlns:cc="http://creativecommons.org/ns#"
   xmlns:rdf="http://www.w3.org/1999/02/22-rdf-syntax-ns#"
   xmlns:svg="http://www.w3.org/2000/svg"
   xmlns="http://www.w3.org/2000/svg"
   id="svg8"
   version="1.1"
   viewBox="0 0 16.933333 16.933334"
   height="64"
   width="64">
  <defs
     id="defs2" />
  <metadata
     id="metadata5">
    <rdf:RDF>
      <cc:Work
         rdf:about="">
        <dc:format>image/svg+xml</dc:format>
        <dc:type
           rdf:resource="http://purl.org/dc/dcmitype/StillImage" />
        <dc:title></dc:title>
      </cc:Work>
    </rdf:RDF>
  </metadata>
  <g
     transform="translate(0,-280.06665)"
     id="layer1">
    <circle
       r="8.4666662"
       cy="288.53333"
       cx="8.4666662"
       id="path4485"
       style="fill:#272822;fill-opacity:1;stroke:none;stroke-width:0.26459831;stroke-linecap:square;stroke-linejoin:miter;stroke-miterlimit:4;stroke-dasharray:0.52919663, 0.52919663;stroke-dashoffset:0;stroke-opacity:1" />
    <path
       id="path4494"
       d="m 6.7566671,293.35432 v -0.73573 l -0.4202846,0.0474 c -0.5188935,0.0585 -1.1331172,-0.10655 -1.4642797,-0.39344 -0.1375219,-0.11913 -0.3638255,-0.44115 -0.5028964,-0.7156 -0.1390713,-0.27444 -0.4468591,-0.67794 -0.6839738,-0.89665 l -0.4311168,-0.39767 0.3721697,-10e-4 c 0.3395332,-0.001 0.4255339,0.0554 0.9807143,0.64236 0.6883913,0.72778 0.8822071,0.85107 1.3379403,0.85107 0.6359795,0 0.9061908,-0.10438 1.059952,-0.40945 0.080688,-0.16008 0.2505938,-0.40221 0.3775673,-0.53805 l 0.2308613,-0.24699 -0.4944276,-0.068 c -1.1536,-0.15866 -2.247513,-0.69969 -2.6123929,-1.29204 -0.2944814,-0.47807 -0.4644822,-1.18097 -0.4664746,-1.92874 -0.00205,-0.77078 0.1609725,-1.34619 0.5342309,-1.88559 0.1904526,-0.27523 0.2249254,-0.40566 0.1714983,-0.64891 -0.093967,-0.42784 -0.069128,-1.07566 0.05575,-1.45404 0.1034872,-0.31358 0.1151373,-0.31967 0.4935178,-0.25817 0.441099,0.0717 0.8858591,0.25926 1.3870398,0.58499 0.3348096,0.21759 0.3754072,0.22183 1.288461,0.13474 0.5896772,-0.0562 1.2725693,-0.0575 1.8233813,-0.004 l 0.8806213,0.0865 0.569721,-0.33391 c 0.496241,-0.29084 1.111562,-0.50892 1.456763,-0.5163 0.233092,-0.005 0.409283,0.92729 0.302689,1.6016 -0.06988,0.44207 -0.05417,0.5286 0.149356,0.82274 0.345994,0.50004 0.523732,1.10401 0.526116,1.7878 0.0059,1.67498 -0.55161,2.54054 -1.951536,3.03015 -0.345293,0.12076 -0.851633,0.24762 -1.125201,0.2819 l -0.497397,0.0623 0.276036,0.29191 c 0.460784,0.48729 0.51545,0.68199 0.560556,1.99649 l 0.04247,1.23757 H 8.8703817 6.756667 Z"
       style="fill:#f8f8f2;fill-opacity:1;stroke-width:0.09340136" />
  </g>
</svg>
