<?xml version="1.0" encoding="UTF-8" standalone="no"?>
<svg
   xmlns:dc="http://purl.org/dc/elements/1.1/"
   xmlns:cc="http://creativecommons.org/ns#"
   xmlns:rdf="http://www.w3.org/1999/02/22-rdf-syntax-ns#"
   xmlns:svg="http://www.w3.org/2000/svg"
   xmlns="http://www.w3.org/2000/svg"
   id="svg8"
   version="1.1"
   viewBox="0 0 16.933333 16.933334"
   height="64"
   width="64">
  <defs
     id="defs2" />
  <metadata
     id="metadata5">
    <rdf:RDF>
      <cc:Work
         rdf:about="">
        <dc:format>image/svg+xml</dc:format>
        <dc:type
           rdf:resource="http://purl.org/dc/dcmitype/StillImage" />
        <dc:title></dc:title>
      </cc:Work>
    </rdf:RDF>
  </metadata>
  <g
     transform="translate(0,-280.06665)"
     id="layer1">
    <circle
       r="8.4666662"
       cy="288.53333"
       cx="8.4666662"
       id="path4485"
       style="fill:#272822;fill-opacity:1;stroke:none;stroke-width:0.26459831;stroke-linecap:square;stroke-linejoin:miter;stroke-miterlimit:4;stroke-dasharray:0.52919663, 0.52919663;stroke-dashoffset:0;stroke-opacity:1" />
    <path
       id="path4494"
       d="m 3.6086856,290.08215 v -3.21383 h 1.0673781 1.0673865 v 3.21383 3.21382 H 4.6760637 3.6086856 Z m 3.3204736,2.93043 c 0.010286,-1.11596 0.015171,-5.20037 0.00686,-5.77418 -0.00258,-0.17462 -0.00601,-0.32932 -0.00686,-0.34378 l -0.00258,-0.0263 H 7.994523 9.0624666 v 0.45505 c 0,0.39407 -7.628e-4,0.45604 -0.00601,0.4626 -0.00771,0.0106 -0.00771,0.0172 0.00171,0.0172 0.00601,0 0.00771,-0.003 0.00771,-0.01 0,-0.0129 0.00258,-0.0176 0.040198,-0.0738 0.067796,-0.10125 0.142501,-0.19958 0.2170342,-0.28561 0.051512,-0.0595 0.1713167,-0.17856 0.2292822,-0.22791 0.2457978,-0.20927 0.531683,-0.3509 0.857449,-0.4248 0.110943,-0.0252 0.167871,-0.0342 0.325277,-0.0517 0.07329,-0.009 0.356261,-0.0116 0.445373,-0.006 0.413774,0.0288 0.767421,0.13006 1.077784,0.30874 0.292878,0.16861 0.540366,0.40766 0.729167,0.70431 0.158195,0.24857 0.275419,0.53521 0.353673,0.86482 0.05356,0.22577 0.08744,0.47387 0.10335,0.75767 0.0027,0.0455 0.0044,0.75206 0.0044,2.00328 v 1.93317 h -1.065355 -1.065354 l -0.0017,-1.80655 c -8.58e-4,-1.23644 -0.0027,-1.8201 -0.0061,-1.84943 -0.0027,-0.0236 -0.0061,-0.0657 -0.0085,-0.0935 -0.0061,-0.0693 -0.02169,-0.1711 -0.0377,-0.24543 -0.05777,-0.26792 -0.156454,-0.4699 -0.303172,-0.62077 -0.170434,-0.17527 -0.377295,-0.26137 -0.665228,-0.27687 -0.195779,-0.0105 -0.3908475,0.0268 -0.5580749,0.10694 -0.2590492,0.12406 -0.4790062,0.3672 -0.5990083,0.66216 -0.034283,0.0841 -0.055112,0.17534 -0.06771,0.29606 -0.00686,0.0622 -0.00686,0.17637 -0.00771,1.9468 l -8.57e-4,1.88057 H 7.9944288 6.9265536 l 0.00258,-0.2834 z m -2.4011249,-7.03045 c -0.299307,-0.0299 -0.544994,-0.13914 -0.7316442,-0.32497 -0.1555976,-0.1549 -0.2589206,-0.3562 -0.2965301,-0.57768 -0.014485,-0.0854 -0.0168,-0.12101 -0.014743,-0.22647 0.00171,-0.0845 0.00343,-0.11202 0.011914,-0.16105 0.039769,-0.23806 0.1407011,-0.4342 0.3054097,-0.59371 0.126139,-0.12215 0.2712028,-0.20696 0.4548959,-0.26591 0.074653,-0.024 0.1791335,-0.0447 0.2768339,-0.055 0.064453,-0.008 0.2337993,-0.009 0.2961101,-0.002 0.4251891,0.0419 0.7438752,0.24099 0.9219201,0.57626 0.062225,0.11719 0.0998,0.23994 0.1221964,0.39931 0.00771,0.0558 0.00891,0.20674 0.00171,0.26098 -0.014743,0.11327 -0.040199,0.21094 -0.079196,0.30386 -0.1221793,0.29095 -0.3593896,0.5028 -0.6788643,0.60626 -0.087167,0.0281 -0.21454,0.0526 -0.3225686,0.0616 -0.064968,0.006 -0.2058406,0.005 -0.2676116,-0.002 z"
       style="fill:#f8f8f2;fill-opacity:1;stroke-width:0.00389555" />
  </g>
</svg>
